<?xml version="1.0" encoding="UTF-8"?>
<svg id="Camada_1" data-name="Camada 1" xmlns="http://www.w3.org/2000/svg" xmlns:xlink="http://www.w3.org/1999/xlink" viewBox="0 0 22.98 23.68">
  <defs>
    <style>.cls-1 { fill: url(#Gradiente_sem_nome_18); }</style>
    <radialGradient id="Gradiente_sem_nome_18" data-name="Gradiente sem nome 18" cx="11.49" cy="11.84" fx="11.49" fy="11.84" r="11.66" gradientUnits="userSpaceOnUse">
      <stop offset="0" stop-color="#5e0538"/>
      <stop offset="1" stop-color="#3d0628"/>
    </radialGradient>
  </defs>
  <path class="cls-1" d="M11.49,0C5.14,0-.05,5.14,0,11.49c.05,6.28,5.79,6.58,9.21,8.73.62-1.13,1.86-4.07-1.19-5.17-1.75-.63-2.52-1.61-2.7-3.01-.41-3.18.89-4.08.89-4.08.83.83,1.31,1.05,3.08,4.02l.94,2.61c-.02-.25-.05-.46.01.03v-.03c0,.13,0,.26,0,.33,0,0,.13,1.63.09,2.17-.14,1.79-.43,2.89-.64,3.47.83.61,1.47,1.37,1.79,2.42.83,2.72,11.39-2.71,11.49-11.49.07-6.34-5.14-11.49-11.49-11.49ZM9.49,7.89c0-.36.1-.7.27-1.02.43-.08,1.4-.04,2.3,1.59,0,0-1.58-2.79.06-3.18,1.63-.39,1.46,2.98,1.46,2.98,0,0,.2-3.38,1.66-2.67,1.46.7-.34,2.9-.34,2.9,0,0,1.8-2.06,2.13-.6,0,1.52-1.69,2.76-3.77,2.76s-3.77-1.24-3.77-2.76ZM15.92,16.67l-1.69.91-.23.09-.67.25c-.85-2.28.3-4.81,2.58-5.66l2.52-.94c.85,2.28-.99,4.44-2.51,5.36Z"/>
</svg>
