<svg width="633" height="113" viewBox="0 0 633 113" fill="none" xmlns="http://www.w3.org/2000/svg">
<g clip-path="url(#clip0_127_25)">
<path d="M347.532 83.2538C347.532 83.2538 321.43 50.381 307.108 34.2127C307.108 34.2127 306.751 74.2763 307.688 75.3482C308.625 76.3308 316.656 74.9909 316.656 74.9909L316.21 79.368H303.628C297.336 79.368 291.848 80.0826 291.848 80.0826L292.428 76.3308C294.659 76.1969 297.917 76.1969 299.3 74.4103C301.843 71.1498 302.2 40.9123 302.2 29.3889C300.683 26.9771 296.712 20.9028 287.654 22.1087L288.234 18.9376C293.812 18.0889 303.851 16.615 306.974 17.4636C312.908 19.0269 345.435 60.6538 345.435 60.6538C345.435 60.6538 345.078 23.9846 343.784 22.6447C342.847 21.6621 334.459 23.002 334.459 23.002L334.905 18.6249H347.934C351.682 18.6249 355.876 18.2676 359.356 17.9996L358.999 21.5281C358.999 21.5281 354.939 21.1708 352.485 23.7166C349.317 26.9771 350.165 75.5269 350.388 82.3605L347.487 83.2091L347.532 83.2538Z" fill="#8874E3"/>
<path d="M417.405 77.8047L400.628 81.3332L398.754 78.7873L398.174 72.713L383.138 80.9759C370.912 80.9759 369.752 75.8842 369.752 62.0383C369.752 56.9466 370.198 51.8549 370.198 43.1008C370.198 40.3316 369.975 38.0091 369.618 37.5178C369.395 37.1605 368.904 37.0265 362.256 36.6692L363.059 32.9174C367.7 32.9174 380.639 29.5229 381.933 29.0316C381.933 29.0316 381.13 39.1257 381.13 54.6241C381.13 68.1126 382.87 72.2217 386.975 72.2217C391.08 72.2217 398.04 69.0506 398.04 69.0506C398.174 63.3336 398.843 38.2324 397.906 37.4731C397.549 37.2498 396.746 37.1158 391.258 36.6245L392.061 32.8727C396.836 32.8727 408.972 29.7016 410.221 29.4783C410.087 30.4609 409.284 45.1107 409.284 57.3933C409.284 65.5221 409.641 72.6684 410.935 74.0083C411.872 74.8569 416.289 74.0083 417.94 73.651L417.36 77.7601L417.405 77.8047Z" fill="#8874E3"/>
<path d="M452.698 45.6466C450.154 39.081 446.54 39.9296 442.346 42.6095C442.212 45.7806 441.052 73.919 441.632 74.7676C442.346 75.7502 451.671 74.5443 453.144 74.4103L452.698 79.368H435.118C430.121 79.368 421.956 79.8593 421.956 79.8593L422.536 76.3308C425.436 75.9735 428.47 75.3482 429.273 74.4103C430.433 73.2043 432.084 40.4209 429.496 37.7411C428.916 37.1158 427.845 36.7585 426.105 36.7585H422.491L423.205 32.8727C427.756 32.8727 438.687 29.4782 439.848 28.9869L441.721 39.5277L450.11 32.1134C451.85 30.5502 453.501 29.7909 454.75 29.7909C457.07 29.7909 459.747 32.1134 460.327 37.4284C460.327 41.6715 452.653 45.5573 452.653 45.5573L452.698 45.6466Z" fill="#8874E3"/>
<path d="M491.471 46.2719C491.248 43.9494 489.82 34.3913 481.342 34.3913C478.174 34.3913 475.765 37.0711 475.631 39.9743C475.051 50.783 496.022 53.0609 495.085 66.0581C494.505 74.321 486.563 80.7526 478.442 80.7526C474.828 80.7526 465.503 79.5466 463.406 79.1893L463.629 74.9462C463.852 71.6858 463.049 66.1028 463.049 66.1028L466.752 65.6115C467.466 72.7577 471.66 76.5541 477.104 76.5541C480.941 76.5541 484.332 73.383 484.555 69.9885C485.135 59.8051 464.655 57.8399 465.458 44.2621C465.904 35.8652 474.203 29.8356 483.038 29.8356C486.072 29.8356 490.489 30.5502 494.103 32.1581C494.103 34.3466 495.263 44.8874 495.263 44.8874L491.426 46.3613L491.471 46.2719Z" fill="#8874E3"/>
<path d="M533.189 77.3134C529.441 80.4846 523.863 80.7079 521.543 80.7079C510.032 80.7079 501.063 71.8644 501.063 55.6067C501.063 40.4209 511.103 29.7462 525.157 29.7462C535.776 29.7462 542.648 37.5178 541.8 52.0782L512.084 52.7035V54.1774C512.084 65.1201 519.669 71.0604 528.058 71.0604C532.609 71.0604 537.517 68.8719 541.443 65.6114L542.603 69.2292L533.189 77.3581V77.3134ZM523.194 33.9893C517.483 33.9893 513.066 40.2869 512.486 49.2644L531.002 47.9245C531.359 41.9842 529.128 33.9446 523.194 33.9446V33.9893Z" fill="#8874E3"/>
<path d="M577.316 45.6466C574.773 39.081 571.159 39.9296 566.965 42.6095C566.831 45.7806 565.671 73.919 566.251 74.7676C566.965 75.7502 576.29 74.5443 577.762 74.4103L577.316 79.368H559.737C554.739 79.368 546.574 79.8593 546.574 79.8593L547.154 76.3308C550.054 75.9735 553.088 75.3482 553.892 74.4103C555.052 73.2043 556.703 40.4209 554.115 37.7411C553.535 37.1158 552.464 36.7585 550.724 36.7585H547.11L547.824 32.8727C552.375 32.8727 563.306 29.4782 564.466 28.9869L566.34 39.5277L574.728 32.1134C576.468 30.5502 578.119 29.7909 579.369 29.7909C581.689 29.7909 584.366 32.1134 584.946 37.4284C584.946 41.6715 577.272 45.5573 577.272 45.5573L577.316 45.6466Z" fill="#8874E3"/>
<path d="M632.42 35.1952C630.769 35.4186 629.743 36.1779 628.806 37.1158C625.415 40.6443 617.874 61.0111 611.583 79.0107C606.452 93.7051 604.846 106.568 605.292 107.06C605.738 107.685 612.743 107.685 614.037 107.685L613.68 111.928H597.484C591.996 111.928 586.061 113 586.061 113L586.641 109.472C587.355 109.338 592.353 107.774 594.583 105.452C596.904 102.772 600.518 92.2312 605.203 82.4945L606.72 79.1L604.132 79.7253C600.295 67.8447 589.809 39.9296 587.846 36.9818C587.132 35.9992 586.775 35.6419 585.035 35.1506L585.615 31.6221C585.615 31.6221 593.2 32.1134 596.457 32.1134H607.969L607.389 35.9992C603.061 35.9992 602.392 36.9818 602.392 38.1877C602.392 42.5648 609.977 61.8597 611.851 67.3087L621.533 38.1877C622.113 36.3565 618.276 36.2672 616.179 36.1332L616.759 32.1134H624.433C626.53 32.1134 633.045 31.3988 633.045 31.3988L632.464 35.1506L632.42 35.1952Z" fill="#8874E3"/>
<path d="M146.482 21.2601C150.408 21.2601 153.085 22.2874 154.558 24.2973C155.986 26.3072 156.343 29.523 155.584 33.9L147.776 80.038H141.262L149.114 33.4981C149.471 31.3542 149.382 29.7463 148.847 28.7637C148.311 27.7811 147.24 27.2451 145.634 27.2451C145.01 27.2451 144.34 27.2451 143.716 27.3344C143.091 27.4238 142.466 27.5131 141.797 27.6471L141.172 21.8407C142.02 21.6174 142.912 21.4388 143.805 21.3494C144.697 21.2601 145.545 21.2155 146.437 21.2155L146.482 21.2601ZM151.122 80.8419C149.471 80.8419 147.82 80.7526 146.17 80.6186C144.519 80.4846 142.912 80.2613 141.262 80.038L144.697 73.8297C146.17 74.455 148.579 74.8123 151.881 74.8123C154.915 74.8123 157.726 74.2317 160.358 73.1151C162.991 71.9985 165.222 70.3459 167.14 68.336C169.059 66.2815 170.576 63.8696 171.647 61.1451C172.718 58.4206 173.253 55.4281 173.253 52.2123C173.253 49.7558 172.673 47.8799 171.557 46.4953C170.442 45.1107 168.791 44.4854 166.694 44.4854C164.508 44.4854 162.277 45.2447 160.046 46.7186C157.815 48.1925 155.807 50.5597 154.022 53.7309C152.238 56.902 150.944 61.0111 150.096 66.0581L151.524 49.3985H154.692L152.773 52.3463C153.755 47.9245 155.629 44.4854 158.484 42.0736C161.34 39.6617 164.865 38.4558 169.014 38.4558C172.405 38.4558 175.038 39.5724 176.912 41.7609C178.786 43.9494 179.723 47.0759 179.723 51.0957C179.723 55.3388 179.009 59.2692 177.581 62.9317C176.153 66.5494 174.145 69.7206 171.513 72.4451C168.925 75.1696 165.891 77.2688 162.366 78.7427C158.886 80.2166 155.093 80.9759 151.033 80.9759L151.122 80.8419Z" fill="#8874E3"/>
<path d="M201.496 80.8419C197.213 80.8419 193.822 79.502 191.412 76.8222C189.003 74.1423 187.798 70.4352 187.798 65.7008C187.798 57.0807 189.628 50.3811 193.331 45.5573C197.034 40.7336 202.165 38.3218 208.724 38.3218C213.052 38.3218 216.443 39.6617 218.853 42.3862C221.262 45.1107 222.511 48.9072 222.511 53.8202C222.511 62.3064 220.637 68.9166 216.979 73.6957C213.275 78.4747 208.144 80.8419 201.541 80.8419H201.496ZM202.656 74.7676C206.85 74.7676 210.107 73.0257 212.472 69.5419C214.837 66.0581 215.997 61.1898 215.997 54.9368C215.997 51.6317 215.283 49.0411 213.855 47.1653C212.428 45.2894 210.42 44.3514 207.877 44.3514C203.593 44.3514 200.247 46.0933 197.837 49.5771C195.428 53.0609 194.223 57.9293 194.223 64.1823C194.223 67.4874 194.982 70.0779 196.454 71.9538C197.927 73.8297 200.024 74.723 202.656 74.723V74.7676Z" fill="#8874E3"/>
<path d="M232.774 45.0661L233.8 39.1257H268.156L267.13 45.0661H232.774ZM252.049 80.8419C247.766 80.8419 244.598 79.8593 242.545 77.8494C240.493 75.8396 239.467 72.7577 239.467 68.6487C239.467 67.5321 239.511 66.4601 239.601 65.4775C239.69 64.4502 239.868 63.3336 240.047 62.0384C240.27 60.7431 240.493 59.2245 240.805 57.3933L245.981 26.7985H252.495L247.32 57.3933C246.873 60.0732 246.516 62.1277 246.293 63.557C246.07 64.9862 245.936 66.5048 245.936 68.0234C245.936 70.3012 246.516 72.0431 247.721 73.1597C248.881 74.2763 250.71 74.857 253.12 74.857C254.994 74.857 256.6 74.6783 258.028 74.3657C259.456 74.0083 261.107 73.4277 263.07 72.5344L264.274 78.0728C262.534 78.8767 260.705 79.5467 258.742 80.1273C256.823 80.6633 254.592 80.9759 252.049 80.9759V80.8419Z" fill="#8874E3"/>
<path d="M51.2666 0C22.9339 0 -0.222958 22.9573 0.000133691 51.319C0.223225 79.368 25.8341 80.7079 41.0936 90.3107C43.8599 85.2636 49.3926 72.1324 35.784 67.2194C27.9758 64.4055 24.5402 60.0285 23.7371 53.7755C21.9077 39.5723 27.7081 35.5526 27.7081 35.5526C31.4114 39.2597 33.5531 40.2423 41.4506 53.5075L45.6447 65.1648C45.5554 64.0482 45.4216 63.1103 45.6893 65.2988V65.1648C45.6893 65.7455 45.6893 66.3261 45.6893 66.6387C45.6893 66.6387 46.2693 73.919 46.0909 76.3308C45.4662 84.3257 44.1723 89.2387 43.2353 91.8293C46.9386 94.5538 49.7942 97.9482 51.222 102.638C54.9253 114.787 102.042 90.534 102.488 51.319C102.801 23.002 79.5546 0 51.222 0L51.2666 0ZM42.3429 35.2399C42.3429 33.632 42.7891 32.1134 43.5476 30.6842C45.4662 30.3269 49.7942 30.5055 53.8098 37.7858C53.8098 37.7858 46.7601 25.3245 54.0775 23.5826C61.3503 21.8407 60.5918 36.8925 60.5918 36.8925C60.5918 36.8925 61.4842 21.796 67.9984 24.9672C74.5127 28.0937 66.4814 37.9198 66.4814 37.9198C66.4814 37.9198 74.5127 28.719 75.9851 35.2399C75.9851 42.0289 68.4446 47.5672 59.164 47.5672C49.8834 47.5672 42.3429 42.0289 42.3429 35.2399ZM71.0325 74.4549L63.492 78.5194L62.4658 78.9213L59.4763 80.038C55.6838 69.8546 60.8149 58.5546 70.9879 54.7581L82.2317 50.5597C86.0242 60.7431 77.8145 70.3905 71.0325 74.4996V74.4549Z" fill="#8874E3"/>
</g>
<defs>
<clipPath id="clip0_127_25">
<rect width="633" height="113" fill="white"/>
</clipPath>
</defs>
</svg>
