<svg width="512" height="512" viewBox="0 0 400 400" xmlns="http://www.w3.org/2000/svg">
  <circle cx="200" cy="200" r="195" fill="#0f172a" stroke="#14b8a6" stroke-width="3"/>
  <!-- Flowerpot -->
  <path d="M150 270 L165 330 L235 330 L250 270 Z" fill="#ff6b6b" opacity="0.8"/>
  <rect x="140" y="258" width="120" height="16" rx="5" fill="#ff6b6b"/>
  <!-- Soil dots -->
  <circle cx="180" cy="275" r="2" fill="#0f172a" opacity="0.3"/>
  <circle cx="200" cy="278" r="2" fill="#0f172a" opacity="0.3"/>
  <circle cx="220" cy="274" r="2" fill="#0f172a" opacity="0.3"/>
  <!-- Bot body growing from pot -->
  <rect x="175" y="185" width="50" height="75" rx="15" fill="#14b8a6"/>
  <!-- Bot head -->
  <rect x="168" y="125" width="64" height="55" rx="16" fill="#14b8a6"/>
  <!-- Bot eyes - big and friendly -->
  <ellipse cx="188" cy="148" rx="10" ry="11" fill="#0f172a"/>
  <ellipse cx="212" cy="148" rx="10" ry="11" fill="#0f172a"/>
  <circle cx="190" cy="145" r="4" fill="#fff"/>
  <circle cx="214" cy="145" r="4" fill="#fff"/>
  <circle cx="192" cy="148" r="1.5" fill="#fff" opacity="0.5"/>
  <circle cx="216" cy="148" r="1.5" fill="#fff" opacity="0.5"/>
  <!-- Bot smile -->
  <path d="M188 163 Q200 173 212 163" fill="none" stroke="#0f172a" stroke-width="3" stroke-linecap="round"/>
  <!-- Antenna -->
  <line x1="200" y1="125" x2="200" y2="103" stroke="#14b8a6" stroke-width="3" stroke-linecap="round"/>
  <circle cx="200" cy="99" r="7" fill="#ff6b6b"/>
  <!-- Small arms/leaves -->
  <path d="M175 215 C155 205 145 215 155 230" fill="none" stroke="#14b8a6" stroke-width="4" stroke-linecap="round"/>
  <path d="M225 215 C245 205 255 215 245 230" fill="none" stroke="#14b8a6" stroke-width="4" stroke-linecap="round"/>
</svg>